<svg width="18" height="18" viewBox="0 0 18 18" fill="none" xmlns="http://www.w3.org/2000/svg">
<path d="M5.83334 16.0416C6.23605 16.0416 6.56251 15.7152 6.56251 15.3125C6.56251 14.9098 6.23605 14.5833 5.83334 14.5833C5.43063 14.5833 5.10417 14.9098 5.10417 15.3125C5.10417 15.7152 5.43063 16.0416 5.83334 16.0416Z" stroke="#6B4423" stroke-width="1.45833" stroke-linecap="round" stroke-linejoin="round"/>
<path d="M13.8542 16.0416C14.2569 16.0416 14.5833 15.7152 14.5833 15.3125C14.5833 14.9098 14.2569 14.5833 13.8542 14.5833C13.4515 14.5833 13.125 14.9098 13.125 15.3125C13.125 15.7152 13.4515 16.0416 13.8542 16.0416Z" stroke="#6B4423" stroke-width="1.45833" stroke-linecap="round" stroke-linejoin="round"/>
<path d="M1.4948 1.49481H2.95313L4.89271 10.5511C4.96386 10.8827 5.14841 11.1792 5.41459 11.3895C5.68076 11.5998 6.01192 11.7107 6.35105 11.7031H13.4823C13.8142 11.7026 14.136 11.5889 14.3945 11.3807C14.653 11.1726 14.8328 10.8825 14.9042 10.5584L16.1073 5.14065H3.73334" stroke="#6B4423" stroke-width="1.45833" stroke-linecap="round" stroke-linejoin="round"/>
</svg>
