<svg width="18" height="18" viewBox="0 0 18 18" fill="none" xmlns="http://www.w3.org/2000/svg">
<path d="M8.02083 15.8448C8.24253 15.9728 8.49401 16.0402 8.75 16.0402C9.00599 16.0402 9.25747 15.9728 9.47917 15.8448L14.5833 12.9281C14.8048 12.8003 14.9888 12.6164 15.1167 12.395C15.2447 12.1736 15.3122 11.9224 15.3125 11.6667V5.83334C15.3122 5.57761 15.2447 5.32643 15.1167 5.10502C14.9888 4.88362 14.8048 4.69975 14.5833 4.57189L9.47917 1.65522C9.25747 1.52722 9.00599 1.45984 8.75 1.45984C8.49401 1.45984 8.24253 1.52722 8.02083 1.65522L2.91667 4.57189C2.69519 4.69975 2.51124 4.88362 2.38325 5.10502C2.25527 5.32643 2.18776 5.57761 2.1875 5.83334V11.6667C2.18776 11.9224 2.25527 12.1736 2.38325 12.395C2.51124 12.6164 2.69519 12.8003 2.91667 12.9281L8.02083 15.8448Z" stroke="#999999" stroke-width="1.45833" stroke-linecap="round" stroke-linejoin="round"/>
<path d="M8.75 16.0417V8.75" stroke="#999999" stroke-width="1.45833" stroke-linecap="round" stroke-linejoin="round"/>
<path d="M2.39896 5.10419L8.75 8.75002L15.101 5.10419" stroke="#999999" stroke-width="1.45833" stroke-linecap="round" stroke-linejoin="round"/>
<path d="M5.46875 3.11353L12.0313 6.86873" stroke="#999999" stroke-width="1.45833" stroke-linecap="round" stroke-linejoin="round"/>
</svg>
