<svg width="18" height="18" viewBox="0 0 18 18" fill="none" xmlns="http://www.w3.org/2000/svg">
<path d="M9.17729 1.88562C8.90387 1.61211 8.53299 1.45841 8.14625 1.45833H2.91667C2.52989 1.45833 2.15896 1.61197 1.88547 1.88546C1.61198 2.15895 1.45833 2.52989 1.45833 2.91666V8.14625C1.45842 8.53299 1.61212 8.90386 1.88563 9.17729L8.23229 15.524C8.56371 15.8533 9.01195 16.0381 9.47917 16.0381C9.94638 16.0381 10.3946 15.8533 10.726 15.524L15.524 10.726C15.8533 10.3946 16.0381 9.94638 16.0381 9.47916C16.0381 9.01195 15.8533 8.5637 15.524 8.23229L9.17729 1.88562Z" stroke="white" stroke-width="1.45833" stroke-linecap="round" stroke-linejoin="round"/>
<path d="M5.46875 5.83334C5.6701 5.83334 5.83333 5.67011 5.83333 5.46876C5.83333 5.2674 5.6701 5.10417 5.46875 5.10417C5.2674 5.10417 5.10417 5.2674 5.10417 5.46876C5.10417 5.67011 5.2674 5.83334 5.46875 5.83334Z" fill="white" stroke="white" stroke-width="1.45833" stroke-linecap="round" stroke-linejoin="round"/>
</svg>
