<svg xmlns="http://www.w3.org/2000/svg" width="24" height="24" fill="none" viewBox="0 0 24 24"><path fill="#000" fill-opacity=".9" d="M11.091 17.4a.9.9 0 1 1 1.8 0 .9.9 0 0 1-1.8 0m.9-11.39a3.64 3.64 0 0 0-3.637 3.637h1.5a2.14 2.14 0 0 1 2.137-2.138 2.14 2.14 0 0 1 2.138 2.138c0 .806-.667 1.615-1.537 1.969l-.004.001a2.18 2.18 0 0 0-1.347 2.022V15h1.5v-1.361a.68.68 0 0 1 .418-.635c1.24-.505 2.47-1.756 2.47-3.357a3.64 3.64 0 0 0-3.638-3.638"/><path fill="#000" fill-opacity=".9" d="M22.491 12c0-5.799-4.7-10.5-10.5-10.5S1.491 6.201 1.491 12s4.701 10.5 10.5 10.5 10.5-4.701 10.5-10.5m-1.5 0a9 9 0 1 1-18 0 9 9 0 0 1 18 0"/></svg>