<svg xmlns="http://www.w3.org/2000/svg" width="18" height="18" fill="none" viewBox="0 0 18 18"><path stroke="#999" stroke-linecap="round" stroke-linejoin="round" stroke-width="1.458" d="M8.02 15.845a1.46 1.46 0 0 0 1.46 0l5.103-2.917a1.46 1.46 0 0 0 .73-1.261V5.833a1.46 1.46 0 0 0-.73-1.261L9.48 1.655a1.46 1.46 0 0 0-1.458 0L2.917 4.572a1.46 1.46 0 0 0-.73 1.261v5.834a1.46 1.46 0 0 0 .73 1.261zm.73.197V8.75"/><path stroke="#999" stroke-linecap="round" stroke-linejoin="round" stroke-width="1.458" d="M2.399 5.104 8.75 8.75l6.351-3.646m-9.632-1.99 6.562 3.755"/></svg>