<svg xmlns="http://www.w3.org/2000/svg" width="18" height="18" fill="none" viewBox="0 0 18 18"><path stroke="#fff" stroke-linecap="round" stroke-linejoin="round" stroke-width="1.458" d="M9.177 1.886a1.46 1.46 0 0 0-1.03-.428h-5.23a1.46 1.46 0 0 0-1.459 1.459v5.23c0 .386.154.757.428 1.03l6.346 6.347a1.77 1.77 0 0 0 2.494 0l4.798-4.798a1.77 1.77 0 0 0 0-2.494z"/><path fill="#fff" stroke="#fff" stroke-linecap="round" stroke-linejoin="round" stroke-width="1.458" d="M5.469 5.833a.365.365 0 1 0 0-.729.365.365 0 0 0 0 .73"/></svg>