<svg xmlns="http://www.w3.org/2000/svg" width="18" height="18" fill="none" viewBox="0 0 18 18"><path stroke="#999" stroke-linecap="round" stroke-linejoin="round" stroke-width="1.458" d="M10.938 15.313V9.479a.73.73 0 0 0-.73-.729H7.292a.73.73 0 0 0-.73.73v5.833"/><path stroke="#999" stroke-linecap="round" stroke-linejoin="round" stroke-width="1.458" d="M2.188 7.292a1.46 1.46 0 0 1 .516-1.114L7.81 1.803a1.46 1.46 0 0 1 1.882 0l5.105 4.375a1.46 1.46 0 0 1 .517 1.114v6.562a1.46 1.46 0 0 1-1.459 1.459H3.646a1.46 1.46 0 0 1-1.458-1.459z"/></svg>