<svg width="18" height="18" viewBox="0 0 18 18" fill="none" xmlns="http://www.w3.org/2000/svg">
<path d="M10.9375 15.3125V9.47917C10.9375 9.28578 10.8607 9.10031 10.7239 8.96357C10.5872 8.82682 10.4017 8.75 10.2083 8.75H7.29167C7.09828 8.75 6.91281 8.82682 6.77607 8.96357C6.63932 9.10031 6.5625 9.28578 6.5625 9.47917V15.3125" stroke="#6B4423" stroke-width="1.45833" stroke-linecap="round" stroke-linejoin="round"/>
<path d="M2.1875 7.29169C2.18745 7.07956 2.23368 6.86996 2.32297 6.67753C2.41226 6.4851 2.54246 6.31446 2.70448 6.17753L7.80865 1.80326C8.07186 1.58079 8.40536 1.45874 8.75 1.45874C9.09464 1.45874 9.42814 1.58079 9.69135 1.80326L14.7955 6.17753C14.9575 6.31446 15.0877 6.4851 15.177 6.67753C15.2663 6.86996 15.3126 7.07956 15.3125 7.29169V13.8542C15.3125 14.241 15.1589 14.6119 14.8854 14.8854C14.6119 15.1589 14.2409 15.3125 13.8542 15.3125H3.64583C3.25906 15.3125 2.88813 15.1589 2.61464 14.8854C2.34115 14.6119 2.1875 14.241 2.1875 13.8542V7.29169Z" stroke="#6B4423" stroke-width="1.45833" stroke-linecap="round" stroke-linejoin="round"/>
</svg>
