<svg width="21" height="21" viewBox="0 0 21 21" fill="none" xmlns="http://www.w3.org/2000/svg">
<path d="M11.0128 2.26275C10.6846 1.93454 10.2396 1.7501 9.7755 1.75H3.5C3.03587 1.75 2.59075 1.93437 2.26256 2.26256C1.93437 2.59075 1.75 3.03587 1.75 3.5V9.7755C1.7501 10.2396 1.93454 10.6846 2.26275 11.0128L9.87875 18.6288C10.2764 19.0239 10.8143 19.2457 11.375 19.2457C11.9357 19.2457 12.4736 19.0239 12.8713 18.6288L18.6288 12.8713C19.0239 12.4736 19.2457 11.9357 19.2457 11.375C19.2457 10.8143 19.0239 10.2764 18.6288 9.87875L11.0128 2.26275Z" stroke="white" stroke-width="1.75" stroke-linecap="round" stroke-linejoin="round"/>
<path d="M6.5625 7C6.80412 7 7 6.80412 7 6.5625C7 6.32088 6.80412 6.125 6.5625 6.125C6.32088 6.125 6.125 6.32088 6.125 6.5625C6.125 6.80412 6.32088 7 6.5625 7Z" fill="white" stroke="white" stroke-width="1.75" stroke-linecap="round" stroke-linejoin="round"/>
</svg>
