<svg width="11" height="11" viewBox="0 0 11 11" fill="none" xmlns="http://www.w3.org/2000/svg">
<g clip-path="url(#clip0_5_415)">
<path d="M5.04218 1.00408C5.06135 0.965341 5.09097 0.932735 5.12769 0.909938C5.16441 0.887141 5.20677 0.875061 5.24999 0.875061C5.29321 0.875061 5.33558 0.887141 5.3723 0.909938C5.40902 0.932735 5.43863 0.965341 5.45781 1.00408L6.46843 3.05114C6.53501 3.18588 6.63329 3.30244 6.75483 3.39084C6.87637 3.47923 7.01755 3.53681 7.16624 3.55864L9.42637 3.88939C9.46919 3.89559 9.50943 3.91366 9.54252 3.94154C9.57561 3.96942 9.60024 4.006 9.61363 4.04715C9.62701 4.08831 9.62861 4.13238 9.61825 4.17439C9.60789 4.21641 9.58598 4.25468 9.55499 4.28489L7.92049 5.87651C7.8127 5.98156 7.73205 6.11123 7.68548 6.25435C7.63892 6.39748 7.62783 6.54978 7.65318 6.69814L8.03906 8.94689C8.04662 8.98969 8.04199 9.03376 8.02571 9.07406C8.00943 9.11437 7.98215 9.14928 7.94698 9.17483C7.91181 9.20037 7.87017 9.21551 7.82681 9.21853C7.78345 9.22155 7.74011 9.21232 7.70174 9.19189L5.68137 8.12964C5.54824 8.05974 5.40014 8.02322 5.24978 8.02322C5.09942 8.02322 4.9513 8.05974 4.81818 8.12964L2.79824 9.19189C2.75989 9.21219 2.71661 9.22133 2.67332 9.21825C2.63003 9.21517 2.58847 9.20001 2.55337 9.17449C2.51828 9.14896 2.49105 9.1141 2.47478 9.07386C2.45852 9.03363 2.45387 8.98963 2.46137 8.94689L2.84681 6.69858C2.87227 6.55015 2.86124 6.39775 2.81467 6.25453C2.7681 6.11132 2.68739 5.98158 2.57949 5.87651L0.944994 4.28533C0.913754 4.25515 0.891616 4.21681 0.881102 4.17467C0.870589 4.13253 0.872123 4.08828 0.885528 4.04697C0.898934 4.00566 0.923673 3.96895 0.956928 3.94101C0.990182 3.91307 1.03061 3.89503 1.07362 3.88895L3.33331 3.55864C3.48217 3.53698 3.62354 3.47948 3.74525 3.39107C3.86696 3.30267 3.96536 3.18601 4.03199 3.05114L5.04218 1.00408Z" fill="#C17817" stroke="#C17817" stroke-width="0.875" stroke-linecap="round" stroke-linejoin="round"/>
</g>
<defs>
<clipPath id="clip0_5_415">
<rect width="10.5" height="10.5" fill="white"/>
</clipPath>
</defs>
</svg>
