<svg width="14" height="14" viewBox="0 0 14 14" fill="none" xmlns="http://www.w3.org/2000/svg">
<path d="M6.72292 1.33875C6.74848 1.28711 6.78797 1.24363 6.83693 1.21324C6.88589 1.18284 6.94237 1.16673 7 1.16673C7.05763 1.16673 7.11411 1.18284 7.16307 1.21324C7.21203 1.24363 7.25152 1.28711 7.27708 1.33875L8.62458 4.06817C8.71335 4.24782 8.84439 4.40324 9.00645 4.5211C9.1685 4.63896 9.35674 4.71574 9.555 4.74484L12.5685 5.18584C12.6256 5.19411 12.6792 5.2182 12.7234 5.25537C12.7675 5.29254 12.8003 5.34132 12.8182 5.39619C12.836 5.45106 12.8382 5.50982 12.8243 5.56584C12.8105 5.62186 12.7813 5.67289 12.74 5.71317L10.5607 7.83534C10.4169 7.9754 10.3094 8.14828 10.2473 8.33912C10.1852 8.52996 10.1705 8.73302 10.2042 8.93084L10.7188 11.9292C10.7288 11.9862 10.7227 12.045 10.701 12.0987C10.6793 12.1525 10.6429 12.199 10.596 12.2331C10.5491 12.2671 10.4936 12.2873 10.4358 12.2914C10.3779 12.2954 10.3202 12.2831 10.269 12.2558L7.57517 10.8395C7.39767 10.7463 7.20019 10.6976 6.99971 10.6976C6.79923 10.6976 6.60175 10.7463 6.42425 10.8395L3.731 12.2558C3.67986 12.2829 3.62215 12.2951 3.56443 12.291C3.50671 12.2869 3.4513 12.2667 3.40451 12.2326C3.35771 12.1986 3.3214 12.1521 3.29972 12.0985C3.27803 12.0448 3.27183 11.9862 3.28183 11.9292L3.79575 8.93142C3.8297 8.73351 3.81499 8.53032 3.7529 8.33936C3.6908 8.14841 3.58319 7.97543 3.43933 7.83534L1.26 5.71375C1.21835 5.67352 1.18883 5.6224 1.17481 5.56621C1.16079 5.51003 1.16284 5.45103 1.18071 5.39595C1.19859 5.34087 1.23157 5.29191 1.27591 5.25466C1.32025 5.21741 1.37416 5.19336 1.4315 5.18525L4.44442 4.74484C4.6429 4.71596 4.83139 4.63929 4.99367 4.52141C5.15595 4.40354 5.28716 4.248 5.376 4.06817L6.72292 1.33875Z" fill="#C17817" stroke="#C17817" stroke-width="1.16667" stroke-linecap="round" stroke-linejoin="round"/>
</svg>
